{"title":"Forbrydelsen - Season 2 - 720p x265 HEVC - DAN-ITA (ENG SUBS) [B","uid":13515034,"size":2981640280,"categoryP":"video","categoryS":"tv_shows","magnet":"?xt=urn:btih:5385cf21954d726afb3d870ff71bf193822ef6cb&amp;dn=Forbrydelsen+-+Season+2+-+720p+x265+HEVC+-+DAN-ITA+%28ENG+SUBS%29+%5BB&amp;tr=udp%3A%2F%2Ftracker.leechers-paradise.org%3A6969&amp;tr=udp%3A%2F%2Fzer0day.ch%3A1337&amp;tr=udp%3A%2F%2Fopen.demonii.com%3A1337&amp;tr=udp%3A%2F%2Ftracker.coppersurfer.tk%3A6969&amp;tr=udp%3A%2F%2Fexodus.desync.com%3A6969","seeders":2,"leechers":0,"uploader":"BRSHNKV","files":17,"time":1455320088,"description":"Police detective Sarah Lund investigates difficult cases with personal and political consequences.\r\n\r\nTechnical:\r\n\r\nFormat : MPEG-4\r\nFormat profile : Base Media / Version 2\r\nCodec ID : mp42\r\nOverall bit rate mode : Variable\r\nOverall bit rate : 659 Kbps\r\nEncoded date : UTC 2016-01-19 07:32:45\r\nTagged date : UTC 2016-01-19 07:32:45\r\nWriting application : HandBrake 0.10.2 2015061100\r\n\r\nVideo\r\nID : 1\r\nFormat : HEVC\r\nFormat/Info : High Efficiency Video Coding\r\nFormat profile :   @Main\r\nCodec ID : hev1\r\nCodec ID/Info : High Efficiency Video Coding\r\nBit rate : 321 Kbps\r\nWidth : 1 280 pixels\r\nHeight : 720 pixels\r\nDisplay aspect ratio : 16:9\r\nFrame rate mode : Constant\r\nFrame rate : 24.000 fps\r\nColor space : YUV\r\nChroma subsampling : 4:2:0\r\nBit depth : 8 bits\r\nBits/(Pixel*Frame) : 0.014\r\nStream size : 137 MiB (49%)\r\nWriting library : x265 1.5:[Mac OS X][clang 6.1.0][64 bit]\r\nEncoded date : UTC 2016-01-19 07:32:45\r\nTagged date : UTC 2016-01-19 07:32:45\r\nColor range : Limited\r\nColor primaries : BT.709\r\nTransfer characteristics : BT.709\r\nMatrix coefficients : BT.709\r\n\r\nAudio #1\r\nID : 2\r\nFormat : AAC\r\nFormat/Info : Advanced Audio Codec\r\nFormat profile : LC\r\nCodec ID : 40\r\nBit rate mode : Variable\r\nBit rate : 165 Kbps\r\nChannel(s) : 2 channels\r\nChannel positions : Front: L R\r\nSampling rate : 48.0 KHz\r\nCompression mode : Lossy\r\nStream size : 70.4 MiB (25%)\r\nTitle : Stereo / Stereo\r\nLanguage : Italian\r\nEncoded date : UTC 2016-01-19 07:32:45\r\nTagged date : UTC 2016-01-19 07:32:45\r\n\r\nAudio #2\r\nID : 3\r\nFormat : AAC\r\nFormat/Info : Advanced Audio Codec\r\nFormat profile : LC\r\nCodec ID : 40\r\nBit rate mode : Variable\r\nBit rate : 165 Kbps\r\nChannel(s) : 2 channels\r\nChannel positions : Front: L R\r\nSampling rate : 48.0 KHz\r\nCompression mode : Lossy\r\nStream size : 70.4 MiB (25%)\r\nTitle : Stereo / Stereo\r\nLanguage : Danish\r\nEncoded date : UTC 2016-01-19 07:32:45\r\nTagged date : UTC 2016-01-19 07:32:45","torrent":{"xt":"urn:btih:5385cf21954d726afb3d870ff71bf193822ef6cb","amp;dn":"Forbrydelsen+-+Season+2+-+720p+x265+HEVC+-+DAN-ITA+%28ENG+SUBS%29+%5BB","amp;tr":["udp%3A%2F%2Ftracker.leechers-paradise.org%3A6969","udp%3A%2F%2Fzer0day.ch%3A1337","udp%3A%2F%2Fopen.demonii.com%3A1337","udp%3A%2F%2Ftracker.coppersurfer.tk%3A6969","udp%3A%2F%2Fexodus.desync.com%3A6969"],"infoHash":"5385cf21954d726afb3d870ff71bf193822ef6cb","infoHashBuffer":{"type":"Buffer","data":[83,133,207,33,149,77,114,106,251,61,135,15,247,27,241,147,130,46,246,203]},"announce":[],"urlList":[]}}